<?xml version="1.0" standalone="no"?>
<!DOCTYPE svg PUBLIC "-//W3C//DTD SVG 20010904//EN"
 "http://www.w3.org/TR/2001/REC-SVG-20010904/DTD/svg10.dtd">
<svg version="1.0" xmlns="http://www.w3.org/2000/svg"
 width="240.000000pt" height="64.000000pt" viewBox="0 0 240.000000 64.000000"
 preserveAspectRatio="xMidYMid meet">

<g transform="translate(0.000000,64.000000) scale(0.100000,-0.100000)"
fill="#000000" stroke="none">
<path d="M180 516 c0 -38 -3 -46 -18 -46 -19 0 -42 -18 -42 -32 0 -4 11 -8 25
-8 14 0 25 -5 25 -12 0 -6 10 -2 23 9 12 12 31 23 41 25 28 5 31 26 4 30 -19
2 -23 9 -23 38 0 25 -5 36 -17 38 -15 3 -18 -4 -18 -42z"/>
<path d="M835 551 c-48 -6 -50 -8 -53 -38 -4 -39 8 -42 42 -8 26 26 50 32 60
16 8 -13 -90 -107 -131 -126 -30 -15 -41 -33 -27 -47 3 -3 23 1 45 10 29 11
43 12 51 4 8 -8 -11 -34 -75 -99 -48 -48 -87 -96 -87 -105 0 -25 14 -22 33 5
16 22 16 21 18 -18 2 -66 3 -70 22 -73 14 -3 17 4 19 40 0 24 0 56 -1 71 -2
28 38 99 64 115 39 23 85 68 85 83 0 26 -15 31 -57 20 -20 -6 -39 -8 -42 -5
-7 7 59 64 122 105 38 25 45 34 36 45 -12 14 -37 15 -124 5z"/>
<path d="M1416 475 c-17 -43 -17 -75 2 -75 4 0 25 9 47 20 51 26 85 26 85 1 0
-14 -50 -99 -77 -130 -2 -3 -27 -4 -56 -3 -48 2 -51 1 -33 -13 11 -8 25 -15
32 -15 43 0 10 -64 -67 -134 -59 -53 -58 -76 2 -46 21 11 39 24 39 29 0 4 25
32 55 61 38 38 60 71 76 112 12 32 24 58 28 58 3 0 19 21 35 46 l29 46 -21 21
c-18 18 -25 19 -47 9 -40 -18 -50 -15 -60 21 -16 51 -46 48 -69 -8z"/>
<path d="M2077 493 c-3 -16 -24 -55 -46 -88 -22 -33 -41 -64 -41 -69 0 -5 29
22 65 59 65 68 75 91 53 113 -18 18 -25 15 -31 -15z"/>
<path d="M417 479 c-10 -6 -30 -8 -44 -4 -20 5 -24 3 -20 -9 4 -10 -1 -20 -13
-26 -11 -6 -20 -17 -20 -25 0 -17 16 -20 25 -5 4 6 11 8 16 4 15 -9 4 -100
-21 -185 -25 -82 -44 -116 -68 -122 -15 -3 -15 -5 2 -12 23 -10 46 17 78 93
18 42 28 54 52 60 40 11 48 42 12 42 -33 0 -33 15 2 45 27 24 25 34 -10 47 -3
2 -10 15 -13 30 -6 23 -3 29 19 39 44 20 50 4 50 -143 0 -116 -2 -139 -21
-181 -15 -31 -31 -51 -49 -57 -21 -8 -24 -14 -16 -22 17 -17 60 17 96 76 30
47 30 48 28 189 -1 78 -5 150 -8 160 -6 19 -48 23 -77 6z"/>
<path d="M1894 434 c11 -58 -1 -92 -35 -99 -43 -10 -36 -32 9 -26 8 1 12 -14
12 -48 0 -47 -2 -51 -35 -67 -25 -11 -35 -23 -35 -39 0 -26 36 -75 55 -75 22
0 42 57 56 160 14 109 14 183 -1 211 -18 32 -33 23 -26 -17z m-14 -281 c0 -16
-5 -35 -10 -43 -8 -13 -11 -13 -26 2 -15 14 -16 22 -6 43 16 34 42 33 42 -2z"/>
<path d="M2145 393 c17 -14 47 -41 67 -59 39 -36 88 -60 88 -44 0 5 9 12 21
15 29 10 18 28 -23 37 -20 4 -62 23 -94 43 -70 42 -103 47 -59 8z"/>
<path d="M171 369 c-30 -13 -41 -23 -34 -30 6 -6 19 -6 37 1 15 5 43 10 62 10
29 0 34 -3 34 -24 0 -26 -30 -86 -42 -86 -5 0 -8 7 -8 16 0 12 -7 15 -30 12
-41 -6 -48 9 -9 17 28 6 29 9 16 22 -12 12 -18 13 -35 2 -18 -12 -24 -10 -45
9 -33 31 -37 28 -36 -20 2 -78 29 -128 42 -77 4 15 11 20 22 15 9 -3 25 -6 36
-6 40 0 16 -26 -41 -44 -32 -10 -67 -24 -77 -31 -34 -25 12 -30 68 -6 58 24
72 20 63 -15 -4 -14 -2 -24 5 -24 5 0 15 18 21 40 6 22 21 50 34 62 13 13 26
35 30 51 3 15 13 27 21 27 20 0 29 20 16 33 -6 6 -11 19 -11 29 0 40 -70 49
-139 17z"/>
<path d="M2065 315 c-22 -8 -49 -15 -60 -16 l-20 0 20 -9 c33 -14 69 -10 93 9
39 34 29 38 -33 16z"/>
<path d="M970 295 c0 -9 -15 -29 -32 -46 -28 -24 -29 -29 -13 -29 27 1 77 46
73 67 -4 22 -28 29 -28 8z"/>
<path d="M857 253 c-6 -14 -8 -123 -2 -142 12 -37 116 -53 198 -30 46 12 57
34 30 61 -20 19 -20 19 -54 -1 -22 -14 -51 -21 -82 -21 -42 0 -49 3 -57 26 -6
14 -10 45 -10 70 0 39 -12 58 -23 37z"/>
<path d="M2075 210 c-26 -17 -31 -18 -45 -5 -26 24 -40 18 -40 -18 0 -35 25
-80 42 -75 6 2 16 19 22 38 8 23 20 36 40 43 26 9 32 7 48 -17 22 -29 68 -37
68 -11 0 8 -6 15 -13 15 -8 0 -19 11 -25 25 -14 31 -53 32 -97 5z"/>
</g>
</svg>
